<svg xmlns="http://www.w3.org/2000/svg" viewBox="0 0 1920 1080" width="100%" height="100%" style="background:#EDF2F7; font-family:'Segoe UI', -apple-system, BlinkMacSystemFont, Roboto, sans-serif;">
  <defs>
    <!-- Card shadow -->
    <filter id="cardShadow" x="-5%" y="-5%" width="110%" height="115%">
      <feDropShadow dx="0" dy="2" stdDeviation="3" flood-opacity="0.08"/>
    </filter>
    
    <!-- Area Chart Gradient -->
    <linearGradient id="areaGradient" x1="0" y1="0" x2="0" y2="1">
      <stop offset="0%" stop-color="#3b65a4" stop-opacity="0.75"/>
      <stop offset="100%" stop-color="#8ba8d9" stop-opacity="0.3"/>
    </linearGradient>

    <!-- Header Logo icon -->
    <radialGradient id="logoBg" cx="30%" cy="30%" r="70%">
      <stop offset="0%" stop-color="#60a5fa"/>
      <stop offset="100%" stop-color="#1e40af"/>
    </radialGradient>
  </defs>

  <!-- ================= TOP HEADER ================= -->
  <g transform="translate(40, 20)">
    <!-- Dashboard Logo Icon -->
    <g transform="translate(0, 5)">
      <circle cx="45" cy="45" r="42" fill="#e0f2fe" stroke="#38bdf8" stroke-width="2"/>
      <!-- Pie slice -->
      <path d="M45,45 L20,38 A28,28 0 0,1 45,17 Z" fill="#38bdf8"/>
      <!-- Trend arrow -->
      <path d="M22,55 Q35,45 50,30 L62,36 L70,16 L50,22 L56,28 Q40,42 22,55 Z" fill="#10b981"/>
      <!-- Mini bar chart in circle -->
      <rect x="26" y="52" width="6" height="15" rx="1.5" fill="#f59e0b"/>
      <rect x="36" y="44" width="6" height="23" rx="1.5" fill="#3b82f6"/>
      <rect x="46" y="48" width="6" height="19" rx="1.5" fill="#ef4444"/>
      <rect x="56" y="40" width="6" height="27" rx="1.5" fill="#10b981"/>
    </g>

    <!-- Header Titles -->
    <text x="110" y="44" font-size="34" font-weight="800" fill="#0f172a" letter-spacing="-0.5">Sales Performance Dashboard</text>
    <text x="110" y="78" font-size="19" font-weight="500" fill="#475569">Sales, Profit &amp; Performance Analysis</text>
  </g>

  <!-- ================= DATE SLICER ================= -->
  <g transform="translate(1180, 18)" filter="url(#cardShadow)">
    <rect x="0" y="0" width="395" height="155" rx="4" fill="#9bc8fd"/>
    <text x="16" y="32" font-size="16" font-weight="700" fill="#0f172a">Date</text>
    
    <!-- Date boxes -->
    <g transform="translate(16, 46)">
      <rect x="0" y="0" width="112" height="32" rx="4" fill="#000000"/>
      <text x="12" y="21" font-size="13" font-weight="700" fill="#ffffff" font-family="monospace">01-01-2024</text>
      <!-- Calendar icon -->
      <rect x="91" y="9" width="12" height="13" rx="1.5" fill="none" stroke="#ffffff" stroke-width="1.5"/>
      <line x1="91" y1="13" x2="103" y2="13" stroke="#ffffff" stroke-width="1.5"/>

      <rect x="122" y="0" width="112" height="32" rx="4" fill="#000000"/>
      <text x="134" y="21" font-size="13" font-weight="700" fill="#ffffff" font-family="monospace">30-12-2025</text>
      <rect x="213" y="9" width="12" height="13" rx="1.5" fill="none" stroke="#ffffff" stroke-width="1.5"/>
      <line x1="213" y1="13" x2="225" y2="13" stroke="#ffffff" stroke-width="1.5"/>
    </g>

    <!-- Slider Track -->
    <g transform="translate(16, 102)">
      <rect x="12" y="6" width="340" height="4" rx="2" fill="#ffffff"/>
      <!-- Thumbs -->
      <circle cx="14" cy="8" r="10" fill="#ffffff" stroke="#64748b" stroke-width="2"/>
      <circle cx="352" cy="8" r="10" fill="#ffffff" stroke="#64748b" stroke-width="2"/>
    </g>
  </g>

  <!-- ================= CATEGORY FILTER ================= -->
  <g transform="translate(1615, 18)" filter="url(#cardShadow)">
    <rect x="0" y="0" width="265" height="358" rx="4" fill="#9bc8fd"/>
    <text x="132" y="32" text-anchor="middle" font-size="16" font-weight="700" fill="#0f172a">Category Filter</text>
    <text x="24" y="62" font-size="13" font-weight="600" fill="#334155">Category</text>

    <!-- Checklist items -->
    <!-- Accessories -->
    <g transform="translate(24, 85)">
      <rect x="0" y="0" width="22" height="22" rx="2" fill="#ffffff" stroke="#000000" stroke-width="1.5"/>
      <text x="35" y="18" font-size="19" font-weight="500" fill="#0f172a">Accessories</text>
    </g>
    <!-- Clothing -->
    <g transform="translate(24, 135)">
      <rect x="0" y="0" width="22" height="22" rx="2" fill="#ffffff" stroke="#000000" stroke-width="1.5"/>
      <text x="35" y="18" font-size="19" font-weight="500" fill="#0f172a">Clothing</text>
    </g>
    <!-- Electronics (Checked) -->
    <g transform="translate(24, 185)">
      <rect x="0" y="0" width="22" height="22" rx="2" fill="#000000"/>
      <text x="35" y="18" font-size="19" font-weight="500" fill="#0f172a">Electronics</text>
    </g>
    <!-- Furniture -->
    <g transform="translate(24, 235)">
      <rect x="0" y="0" width="22" height="22" rx="2" fill="#ffffff" stroke="#000000" stroke-width="1.5"/>
      <text x="35" y="18" font-size="19" font-weight="500" fill="#0f172a">Furniture</text>
    </g>
  </g>

  <!-- ================= TOP 6 KPI CARDS ================= -->
  <!-- Card 1: Total Sales -->
  <g transform="translate(28, 192)" filter="url(#cardShadow)">
    <rect x="0" y="0" width="218" height="184" rx="24" fill="#9bc8fd"/>
    <!-- Icon -->
    <g transform="translate(18, 16)">
      <circle cx="20" cy="20" r="18" fill="#e0f2fe"/>
      <path d="M12,25 L18,17 L22,21 L28,13" fill="none" stroke="#0284c7" stroke-width="2.5" stroke-linecap="round" stroke-linejoin="round"/>
      <polyline points="24,13 28,13 28,17" fill="none" stroke="#0284c7" stroke-width="2.5" stroke-linecap="round"/>
    </g>
    <text x="18" y="90" font-size="15" font-weight="500" fill="#334155">Total Sales</text>
    <text x="18" y="142" font-size="36" font-weight="800" fill="#000000" letter-spacing="-0.5">214.54M</text>
  </g>

  <!-- Card 2: Total Profit -->
  <g transform="translate(288, 192)" filter="url(#cardShadow)">
    <rect x="0" y="0" width="218" height="184" rx="24" fill="#9bc8fd"/>
    <!-- Icon -->
    <g transform="translate(18, 16)">
      <circle cx="20" cy="20" r="18" fill="#047857"/>
      <text x="20" y="26" font-size="17" font-weight="bold" fill="#ffffff" text-anchor="middle">₹</text>
    </g>
    <text x="18" y="90" font-size="15" font-weight="500" fill="#334155">Total Profit</text>
    <text x="18" y="142" font-size="36" font-weight="800" fill="#000000" letter-spacing="-0.5">27M</text>
  </g>

  <!-- Card 3: Total Orders -->
  <g transform="translate(552, 192)" filter="url(#cardShadow)">
    <rect x="0" y="0" width="218" height="184" rx="24" fill="#9bc8fd"/>
    <!-- Icon -->
    <g transform="translate(18, 16)">
      <circle cx="20" cy="20" r="18" fill="#ffedd5"/>
      <path d="M12,14 L15,14 L18,24 L27,24 L29,17 L16,17" fill="none" stroke="#ea580c" stroke-width="2" stroke-linecap="round" stroke-linejoin="round"/>
      <circle cx="19" cy="27" r="1.5" fill="#ea580c"/>
      <circle cx="26" cy="27" r="1.5" fill="#ea580c"/>
    </g>
    <text x="18" y="90" font-size="15" font-weight="500" fill="#334155">Total Orders</text>
    <text x="18" y="142" font-size="36" font-weight="800" fill="#000000" letter-spacing="-0.5">4K</text>
  </g>

  <!-- Card 4: Total Quantity -->
  <g transform="translate(816, 192)" filter="url(#cardShadow)">
    <rect x="0" y="0" width="218" height="184" rx="24" fill="#9bc8fd"/>
    <!-- Icon -->
    <g transform="translate(18, 16)">
      <circle cx="20" cy="20" r="18" fill="#fef3c7"/>
      <!-- Box with check -->
      <rect x="13" y="15" width="14" height="14" rx="2" fill="#f59e0b"/>
      <polyline points="16,22 19,25 24,18" fill="none" stroke="#ffffff" stroke-width="2" stroke-linecap="round"/>
    </g>
    <text x="18" y="90" font-size="15" font-weight="500" fill="#334155">Total Quantity</text>
    <text x="18" y="142" font-size="36" font-weight="800" fill="#000000" letter-spacing="-0.5">7K</text>
  </g>

  <!-- Card 5: Profit Margin % -->
  <g transform="translate(1072, 192)" filter="url(#cardShadow)">
    <rect x="0" y="0" width="218" height="184" rx="24" fill="#9bc8fd"/>
    <!-- Icon -->
    <g transform="translate(18, 16)">
      <circle cx="20" cy="20" r="18" fill="#dcfce7"/>
      <text x="15" y="24" font-size="14" font-weight="900" fill="#16a34a">%</text>
      <path d="M22,23 L28,15 L24,15 M28,15 L28,19" fill="none" stroke="#16a34a" stroke-width="2"/>
    </g>
    <text x="18" y="90" font-size="15" font-weight="500" fill="#334155">Profit Margin %</text>
    <text x="18" y="142" font-size="36" font-weight="800" fill="#000000" letter-spacing="-0.5">12.44%</text>
  </g>

  <!-- Card 6: Total Cost -->
  <g transform="translate(1368, 192)" filter="url(#cardShadow)">
    <rect x="0" y="0" width="218" height="184" rx="24" fill="#9bc8fd"/>
    <!-- Icon -->
    <g transform="translate(18, 16)">
      <circle cx="20" cy="20" r="18" fill="#fee2e2"/>
      <rect x="13" y="13" width="14" height="15" rx="2" fill="#dc2626"/>
      <!-- Calculator lines -->
      <line x1="16" y1="17" x2="24" y2="17" stroke="#ffffff" stroke-width="1.5"/>
      <line x1="16" y1="21" x2="19" y2="21" stroke="#ffffff" stroke-width="1.5"/>
      <line x1="21" y1="21" x2="24" y2="21" stroke="#ffffff" stroke-width="1.5"/>
      <line x1="16" y1="24" x2="24" y2="24" stroke="#ffffff" stroke-width="1.5"/>
    </g>
    <text x="18" y="90" font-size="15" font-weight="500" fill="#334155">Total Cost</text>
    <text x="18" y="142" font-size="36" font-weight="800" fill="#000000" letter-spacing="-0.5">187.86M</text>
  </g>

  <!-- ================= MIDDLE ROW 4 CHARTS ================= -->
  
  <!-- 1. Profit Margin % by Category -->
  <g transform="translate(28, 430)">
    <!-- Header with Icon -->
    <g transform="translate(16, 6)">
      <rect x="0" y="0" width="28" height="28" rx="4" fill="#dcfce7"/>
      <text x="6" y="20" font-size="15" font-weight="bold" fill="#16a34a">%</text>
      <polyline points="14,24 19,15 24,10" fill="none" stroke="#16a34a" stroke-width="2"/>
    </g>
    <text x="56" y="27" font-size="16" font-weight="700" fill="#0f172a">Profit Margin % by Category</text>

    <!-- Gridlines & Y-axis labels -->
    <g transform="translate(20, 50)">
      <!-- 15% -->
      <text x="0" y="25" font-size="14" fill="#0f172a">15%</text>
      <line x1="38" y1="20" x2="425" y2="20" stroke="#93c5fd" stroke-width="1.5"/>

      <!-- 10% -->
      <text x="0" y="85" font-size="14" fill="#0f172a">10%</text>
      <line x1="38" y1="80" x2="425" y2="80" stroke="#93c5fd" stroke-width="1.5"/>

      <!-- 5% -->
      <text x="0" y="145" font-size="14" fill="#0f172a">5%</text>
      <line x1="38" y1="140" x2="425" y2="140" stroke="#93c5fd" stroke-width="1.5"/>

      <!-- 0% -->
      <text x="0" y="205" font-size="14" fill="#0f172a">0%</text>
      <line x1="38" y1="200" x2="425" y2="200" stroke="#93c5fd" stroke-width="1.5"/>

      <!-- Single Bar for Electronics -->
      <rect x="180" y="52" width="60" height="148" fill="#00457c"/>
      <text x="210" y="44" font-size="14" font-weight="500" fill="#00457c" text-anchor="middle">12.44%</text>
      <text x="210" y="224" font-size="14" font-weight="500" fill="#00457c" text-anchor="middle">Electronics</text>
    </g>
  </g>

  <!-- 2. Total Sales by Region -->
  <g transform="translate(528, 430)">
    <!-- Header with map pin icon -->
    <g transform="translate(16, 6)">
      <circle cx="14" cy="14" r="14" fill="#fee2e2"/>
      <path d="M14,6 C10.5,6 8,8.5 8,12 C8,16.5 14,21 14,21 C14,21 20,16.5 20,12 C20,8.5 17.5,6 14,6 Z" fill="#ef4444"/>
      <circle cx="14" cy="11" r="2.5" fill="#ffffff"/>
    </g>
    <text x="56" y="27" font-size="16" font-weight="700" fill="#0f172a">Total Sales by Region</text>

    <!-- Gridlines & Y-axis labels -->
    <g transform="translate(10, 50)">
      <!-- 100M -->
      <text x="0" y="25" font-size="14" fill="#0f172a">100M</text>
      <line x1="45" y1="20" x2="420" y2="20" stroke="#93c5fd" stroke-width="1.5"/>

      <!-- 50M -->
      <text x="0" y="115" font-size="14" fill="#0f172a">50M</text>
      <line x1="45" y1="110" x2="420" y2="110" stroke="#93c5fd" stroke-width="1.5"/>

      <!-- 0M -->
      <text x="0" y="205" font-size="14" fill="#0f172a">0M</text>
      <line x1="45" y1="200" x2="420" y2="200" stroke="#93c5fd" stroke-width="1.5"/>

      <!-- Bars -->
      <!-- South: 83944650 -->
      <rect x="85" y="48" width="45" height="152" fill="#00457c"/>
      <text x="107" y="38" font-size="13" font-weight="500" fill="#00457c" text-anchor="middle">83944650</text>
      <text x="107" y="224" font-size="14" font-weight="500" fill="#00457c" text-anchor="middle">South</text>

      <!-- North: 63174475 -->
      <rect x="175" y="85" width="45" height="115" fill="#00457c"/>
      <text x="197" y="75" font-size="13" font-weight="500" fill="#00457c" text-anchor="middle">63174475</text>
      <text x="197" y="224" font-size="14" font-weight="500" fill="#00457c" text-anchor="middle">North</text>

      <!-- West: 42850585 -->
      <rect x="265" y="122" width="45" height="78" fill="#00457c"/>
      <text x="287" y="112" font-size="13" font-weight="500" fill="#00457c" text-anchor="middle">42850585</text>
      <text x="287" y="224" font-size="14" font-weight="500" fill="#00457c" text-anchor="middle">West</text>

      <!-- East: 24569985 -->
      <rect x="355" y="155" width="45" height="45" fill="#00457c"/>
      <text x="377" y="145" font-size="13" font-weight="500" fill="#00457c" text-anchor="middle">24569985</text>
      <text x="377" y="224" font-size="14" font-weight="500" fill="#00457c" text-anchor="middle">East</text>
    </g>
  </g>

  <!-- 3. Total Profit by Category -->
  <g transform="translate(1008, 430)">
    <g transform="translate(16, 6)">
      <circle cx="14" cy="14" r="14" fill="#fef3c7"/>
      <rect x="8" y="10" width="12" height="9" fill="#f59e0b"/>
      <line x1="8" y1="13" x2="20" y2="13" stroke="#ffffff" stroke-width="1"/>
    </g>
    <text x="56" y="27" font-size="16" font-weight="700" fill="#0f172a">Total Profit</text>
    <text x="16" y="52" font-size="14" fill="#334155">by Category</text>

    <!-- Gridlines & Y-axis labels -->
    <g transform="translate(10, 50)">
      <!-- 30M -->
      <text x="0" y="42" font-size="14" fill="#0f172a">30M</text>
      <line x1="40" y1="37" x2="420" y2="37" stroke="#93c5fd" stroke-width="1.5"/>

      <!-- 20M -->
      <text x="0" y="96" font-size="14" fill="#0f172a">20M</text>
      <line x1="40" y1="91" x2="420" y2="91" stroke="#93c5fd" stroke-width="1.5"/>

      <!-- 10M -->
      <text x="0" y="150" font-size="14" fill="#0f172a">10M</text>
      <line x1="40" y1="145" x2="420" y2="145" stroke="#93c5fd" stroke-width="1.5"/>

      <!-- 0M -->
      <text x="0" y="205" font-size="14" fill="#0f172a">0M</text>
      <line x1="40" y1="200" x2="420" y2="200" stroke="#93c5fd" stroke-width="1.5"/>

      <!-- Bar -->
      <rect x="210" y="55" width="55" height="145" fill="#00457c"/>
      <text x="237" y="47" font-size="14" font-weight="500" fill="#00457c" text-anchor="middle">27M</text>
      <text x="237" y="224" font-size="14" font-weight="500" fill="#00457c" text-anchor="middle">Electronics</text>
    </g>
  </g>

  <!-- 4. Total Sales by Category -->
  <g transform="translate(1488, 430)">
    <g transform="translate(16, 6)">
      <circle cx="14" cy="14" r="14" fill="#e0e7ff"/>
      <circle cx="14" cy="14" r="10" fill="#6366f1"/>
      <path d="M14,14 L24,14 A10,10 0 0,0 14,4 Z" fill="#f43f5e"/>
    </g>
    <text x="56" y="27" font-size="16" font-weight="700" fill="#0f172a">Total Sales by Category</text>

    <!-- Gridlines & Y-axis labels -->
    <g transform="translate(10, 50)">
      <!-- 0.2bn -->
      <text x="0" y="55" font-size="14" fill="#0f172a">0.2bn</text>
      <line x1="48" y1="50" x2="380" y2="50" stroke="#93c5fd" stroke-width="1.5"/>

      <!-- 0.1bn -->
      <text x="0" y="127" font-size="14" fill="#0f172a">0.1bn</text>
      <line x1="48" y1="122" x2="380" y2="122" stroke="#93c5fd" stroke-width="1.5"/>

      <!-- 0.0bn -->
      <text x="0" y="205" font-size="14" fill="#0f172a">0.0bn</text>
      <line x1="48" y1="200" x2="380" y2="200" stroke="#93c5fd" stroke-width="1.5"/>

      <!-- Bar -->
      <rect x="200" y="42" width="55" height="158" fill="#00457c"/>
      <text x="227" y="34" font-size="14" font-weight="500" fill="#00457c" text-anchor="middle">214.5M</text>
      <text x="227" y="224" font-size="14" font-weight="500" fill="#00457c" text-anchor="middle">Electronics</text>
    </g>
  </g>

  <!-- Power BI bottom action icons -->
  <g transform="translate(1780, 720)">
    <!-- Filter icon -->
    <path d="M10,8 L24,8 L18,15 L18,22 L16,23 L16,15 Z" fill="none" stroke="#64748b" stroke-width="1.5"/>
    <!-- Focus icon -->
    <rect x="36" y="9" width="14" height="13" fill="none" stroke="#64748b" stroke-width="1.5"/>
    <polyline points="40,13 36,9" stroke="#64748b" stroke-width="1.5"/>
    <polyline points="46,18 50,22" stroke="#64748b" stroke-width="1.5"/>
    <!-- Ellipsis -->
    <circle cx="68" cy="16" r="2" fill="#64748b"/>
    <circle cx="75" cy="16" r="2" fill="#64748b"/>
    <circle cx="82" cy="16" r="2" fill="#64748b"/>
  </g>

  <!-- ================= BOTTOM ROW: AREA / LINE CHART ================= -->
  <!-- Total Sales by Year-Month -->
  <g transform="translate(28, 760)">
    <!-- Chart Header -->
    <g transform="translate(780, 10)">
      <circle cx="16" cy="16" r="14" fill="#e0f2fe"/>
      <rect x="9" y="10" width="14" height="12" rx="1.5" fill="#0284c7"/>
      <line x1="9" y1="13" x2="23" y2="13" stroke="#ffffff" stroke-width="1"/>
      <text x="38" y="21" font-size="17" font-weight="700" fill="#0f172a">Total Sales by Year-Month</text>
    </g>

    <!-- Legend Tag Box -->
    <g transform="translate(1310, 48)">
      <rect x="0" y="0" width="255" height="32" rx="4" fill="#ffffff" stroke="#000000" stroke-width="1.5"/>
      <text x="127" y="21" font-size="15" font-weight="600" fill="#0f172a" text-anchor="middle">Total Sales by Year-Month</text>
    </g>

    <!-- Gridlines & Y-Axis -->
    <g transform="translate(20, 45)">
      <!-- 10M -->
      <text x="0" y="42" font-size="14" font-weight="bold" fill="#0f172a">10M</text>
      <line x1="45" y1="38" x2="1830" y2="38" stroke="#93c5fd" stroke-width="1.5"/>

      <!-- 8M -->
      <text x="0" y="112" font-size="14" font-weight="bold" fill="#0f172a">8M</text>
      <line x1="45" y1="108" x2="1830" y2="108" stroke="#93c5fd" stroke-width="1.5"/>

      <!-- 6M -->
      <text x="0" y="182" font-size="14" font-weight="bold" fill="#0f172a">6M</text>
      <line x1="45" y1="178" x2="1830" y2="178" stroke="#93c5fd" stroke-width="1.5"/>

      <!-- Spline Wave Area -->
      <path d="M 60,110 
               C 100,105 110,85 140,80
               C 170,75 190,75 220,75
               C 250,75 270,120 300,118
               C 330,115 350,90 380,82
               C 410,75 430,45 460,42
               C 490,40 510,105 540,100
               C 570,95 590,20 620,18
               C 650,15 670,80 700,75
               C 730,70 750,42 780,40
               C 810,38 830,115 860,118
               C 890,120 910,165 940,168
               C 970,170 990,90 1020,82
               C 1050,75 1070,38 1100,35
               C 1130,32 1150,110 1180,108
               C 1210,105 1230,42 1260,38
               C 1290,35 1320,118 1350,118
               C 1380,118 1400,128 1430,128
               C 1460,128 1530,182 1560,180
               C 1590,178 1610,165 1640,160
               C 1670,155 1690,22 1720,18
               C 1750,15 1780,105 1800,108
               L 1800,195 L 60,195 Z" 
            fill="url(#areaGradient)"/>

      <!-- Spline Wave Line -->
      <path d="M 60,110 
               C 100,105 110,85 140,80
               C 170,75 190,75 220,75
               C 250,75 270,120 300,118
               C 330,115 350,90 380,82
               C 410,75 430,45 460,42
               C 490,40 510,105 540,100
               C 570,95 590,20 620,18
               C 650,15 670,80 700,75
               C 730,70 750,42 780,40
               C 810,38 830,115 860,118
               C 890,120 910,165 940,168
               C 970,170 990,90 1020,82
               C 1050,75 1070,38 1100,35
               C 1130,32 1150,110 1180,108
               C 1210,105 1230,42 1260,38
               C 1290,35 1320,118 1350,118
               C 1380,118 1400,128 1430,128
               C 1460,128 1530,182 1560,180
               C 1590,178 1610,165 1640,160
               C 1670,155 1690,22 1720,18
               C 1750,15 1780,105 1800,108"
            fill="none" stroke="#2a4b8d" stroke-width="4.5" stroke-linecap="round"/>

      <!-- Circular Points and Data Labels -->
      <!-- 2024-01 -->
      <circle cx="60" cy="110" r="4.5" fill="#1e293b"/>
      <text x="60" y="132" font-size="12" font-weight="600" fill="#2563eb" text-anchor="middle">8M</text>

      <!-- 2025-01 -->
      <circle cx="140" cy="80" r="4.5" fill="#1e293b"/>
      <text x="140" y="68" font-size="12" font-weight="600" fill="#2563eb" text-anchor="middle">9M</text>

      <!-- 2024-02 -->
      <circle cx="220" cy="75" r="4.5" fill="#1e293b"/>
      <text x="220" y="62" font-size="12" font-weight="600" fill="#2563eb" text-anchor="middle">9M</text>

      <!-- 2025-02 -->
      <circle cx="300" cy="118" r="4.5" fill="#1e293b"/>
      <text x="300" y="138" font-size="12" font-weight="600" fill="#2563eb" text-anchor="middle">8M</text>

      <!-- 2024-03 -->
      <circle cx="380" cy="82" r="4.5" fill="#1e293b"/>
      <text x="380" y="70" font-size="12" font-weight="600" fill="#2563eb" text-anchor="middle">9M</text>

      <!-- 2025-03 -->
      <circle cx="460" cy="42" r="4.5" fill="#1e293b"/>
      <text x="460" y="28" font-size="12" font-weight="600" fill="#2563eb" text-anchor="middle">10M</text>

      <!-- 2024-04 -->
      <circle cx="540" cy="100" r="4.5" fill="#1e293b"/>
      <text x="540" y="120" font-size="12" font-weight="600" fill="#2563eb" text-anchor="middle">9M</text>

      <!-- 2025-04 -->
      <circle cx="620" cy="18" r="4.5" fill="#1e293b"/>
      <text x="620" y="8" font-size="12" font-weight="600" fill="#2563eb" text-anchor="middle">11M</text>

      <!-- 2024-05 -->
      <circle cx="700" cy="75" r="4.5" fill="#1e293b"/>
      <text x="700" y="95" font-size="12" font-weight="600" fill="#2563eb" text-anchor="middle">10M</text>

      <!-- 2025-05 -->
      <circle cx="780" cy="40" r="4.5" fill="#1e293b"/>
      <text x="780" y="26" font-size="12" font-weight="600" fill="#2563eb" text-anchor="middle">10M</text>

      <!-- 2024-06 -->
      <circle cx="860" cy="118" r="4.5" fill="#1e293b"/>
      <text x="860" y="105" font-size="12" font-weight="600" fill="#2563eb" text-anchor="middle">8M</text>

      <!-- 2025-06 -->
      <circle cx="940" cy="168" r="4.5" fill="#1e293b"/>
      <text x="940" y="190" font-size="12" font-weight="600" fill="#2563eb" text-anchor="middle">7M</text>

      <!-- 2024-07 -->
      <circle cx="1020" cy="82" r="4.5" fill="#1e293b"/>
      <text x="1020" y="70" font-size="12" font-weight="600" fill="#2563eb" text-anchor="middle">9M</text>

      <!-- 2025-07 -->
      <circle cx="1100" cy="35" r="4.5" fill="#1e293b"/>
      <text x="1100" y="22" font-size="12" font-weight="600" fill="#2563eb" text-anchor="middle">10M</text>

      <!-- 2024-08 -->
      <circle cx="1180" cy="108" r="4.5" fill="#1e293b"/>
      <text x="1180" y="128" font-size="12" font-weight="600" fill="#2563eb" text-anchor="middle">9M</text>

      <!-- 2025-08 -->
      <circle cx="1260" cy="38" r="4.5" fill="#1e293b"/>
      <text x="1260" y="24" font-size="12" font-weight="600" fill="#2563eb" text-anchor="middle">10M</text>

      <!-- 2024-09 -->
      <circle cx="1350" cy="118" r="4.5" fill="#1e293b"/>
      <text x="1350" y="105" font-size="12" font-weight="600" fill="#2563eb" text-anchor="middle">8M</text>

      <!-- 2025-09 -->
      <circle cx="1430" cy="128" r="4.5" fill="#1e293b"/>
      <text x="1430" y="148" font-size="12" font-weight="600" fill="#2563eb" text-anchor="middle">8M</text>

      <!-- 2024-11 -->
      <circle cx="1560" cy="180" r="4.5" fill="#1e293b"/>
      <text x="1560" y="165" font-size="12" font-weight="600" fill="#2563eb" text-anchor="middle">7M</text>

      <!-- 2025-11 -->
      <circle cx="1640" cy="160" r="4.5" fill="#1e293b"/>
      <text x="1640" y="145" font-size="12" font-weight="600" fill="#2563eb" text-anchor="middle">7M</text>

      <!-- 2024-12 -->
      <circle cx="1720" cy="18" r="4.5" fill="#1e293b"/>
      <text x="1720" y="8" font-size="12" font-weight="600" fill="#2563eb" text-anchor="middle">11M</text>

      <!-- 2025-12 -->
      <circle cx="1800" cy="108" r="4.5" fill="#1e293b"/>
      <text x="1800" y="128" font-size="12" font-weight="600" fill="#2563eb" text-anchor="middle">9M</text>

      <!-- X-Axis Labels -->
      <g transform="translate(0, 218)" font-size="12" font-weight="600" fill="#0f172a" text-anchor="middle">
        <text x="60">2024-01</text>
        <text x="140">2025-01</text>
        <text x="220">2024-02</text>
        <text x="300">2025-02</text>
        <text x="380">2024-03</text>
        <text x="460">2025-03</text>
        <text x="540">2024-04</text>
        <text x="620">2025-04</text>
        <text x="700">2024-05</text>
        <text x="780">2025-05</text>
        <text x="860">2024-06</text>
        <text x="940">2025-06</text>
        <text x="1020">2024-07</text>
        <text x="1100">2025-07</text>
        <text x="1180">2024-08</text>
        <text x="1260">2025-08</text>
        <text x="1350">2024-09</text>
        <text x="1430">2025-09</text>
        <text x="1500">2024-10</text>
        <text x="1530">2025-10</text>
        <text x="1560">2024-11</text>
        <text x="1640">2025-11</text>
        <text x="1720">2024-12</text>
        <text x="1800">2025-12</text>
      </g>
    </g>
  </g>
</svg>
